<svg xmlns="http://www.w3.org/2000/svg" width="156.64474" height="207.74351" viewBox="0 0 156.64474 207.74351"><title>jeffrey</title><path d="M182.307,183.303a12.383,12.383,0,0,1,5.60841,4.07861,6.46951,6.46951,0,0,1,1.0728,4.8421c-.35873,3.70012-2.80612,6.02729-5.4889,8.09467a39.40744,39.40744,0,0,1-10.19281,5.28433,98.18427,98.18427,0,0,1-11.5318,3.46384,129.95417,129.95417,0,0,1-15.44567,2.7356,157.34,157.34,0,0,1-15.89848,1.45605c-5.70069.11885-11.38457.73125-17.09575.56326-6.73977-.19825-13.48188-.441-20.19668-1.01855a151.28559,151.28559,0,0,1-19.3546-2.82508,84.34511,84.34511,0,0,1-12.05611-3.47177,38.41221,38.41221,0,0,1-9.71768-5.09735,11.16429,11.16429,0,0,1-4.07709-5.06047c-.23707-.6644-.8568-1.01741-.97066-1.8651-.46443-3.45787,1.448-5.70375,3.81236-7.58215a25.64634,25.64634,0,0,1,13.89046-5.17825,62.98784,62.98784,0,0,1,10.09559.05112,8.13867,8.13867,0,0,1,3.43673,1.33464c.93876.51307,1.821,1.12918,2.73233,1.69311.27227.1685.71051.249.5851.67525-.11.37378-.5218.382-.85257.36584a24.92336,24.92336,0,0,0-8.02534.93341,11.99733,11.99733,0,0,0-6.601,4.065,2.2588,2.2588,0,0,0,.04644,2.75026,11.96937,11.96937,0,0,0,5.639,4.11235,62.89453,62.89453,0,0,0,12.63774,3.68141c4.03479.70561,8.13406.89121,12.17673,1.47173a178.46074,178.46074,0,0,0,23.83581,1.43262c5.45184.04885,10.89364-.32216,16.33964-.57909,4.62524-.21823,9.12549-1.26875,13.74553-1.50536,3.07394-.15744,6.10527-1.10522,9.16121-1.66919a58.58576,58.58576,0,0,0,8.05687-2.08639,37.38655,37.38655,0,0,0,11.05-5.54167,10.07154,10.07154,0,0,0,3.72988-5.48178,4.12166,4.12166,0,0,0-.01535-2.45345A2.36581,2.36581,0,0,1,182.307,183.303Z" transform="translate(-46.89197 -22.06727)" fill="#5b0b9f"/><path d="M138.43324,22.06727a50.38092,50.38092,0,0,1,3.24237,5.74363,11.88407,11.88407,0,0,1,.98012,2.6331,32.25422,32.25422,0,0,1,1.2795,11.153,27.61554,27.61554,0,0,1-1.25158,6.009,24.28879,24.28879,0,0,1-2.45634,5.71036c-.69809,1.14381-1.31126,2.363-1.99815,3.53239a58.65218,58.65218,0,0,1-5.42144,7.34575c-3.34132,4.07727-7.15954,7.71714-10.73615,11.57856-2.72523,2.94226-5.549,5.80492-8.01463,8.97991a37.94228,37.94228,0,0,0-4.1658,6.6552,12.90906,12.90906,0,0,0-.99292,8.11026,10.21409,10.21409,0,0,0,1.40627,3.61328,13.07831,13.07831,0,0,1,1.0947,2.72466c.98432,2.69476,2.26737,5.25337,3.43846,7.85064a65.36679,65.36679,0,0,0,3.40849,6.64577c.82662,1.38534,1.63,2.82238,2.32536,4.30458a24.12547,24.12547,0,0,0,2.07775,3.44231,1.75351,1.75351,0,0,1,.22581,1.64861,47.61051,47.61051,0,0,1-6.29208-4.66907,115.32414,115.32414,0,0,1-10.209-9.45478,73.22578,73.22578,0,0,1-8.30422-10.43938,55.50529,55.50529,0,0,1-3.41435-6.66693c-1.86888-4.013-1.98534-8.16861-1.58427-12.36986A13.90035,13.90035,0,0,1,94.62308,81.825a34.2023,34.2023,0,0,1,3.86617-6.11,57.2617,57.2617,0,0,1,6.6441-7.01471c3.79648-3.553,7.86346-6.79325,11.86961-10.10586A120.59208,120.59208,0,0,0,131.64812,44.8535a35.65671,35.65671,0,0,0,5.4134-8.4283A21.3531,21.3531,0,0,0,138.744,26.04751a3.57922,3.57922,0,0,0-.492-1.63A1.86739,1.86739,0,0,1,138.43324,22.06727Z" transform="translate(-46.89197 -22.06727)" fill="#fec109"/><path d="M129.3204,133.53015a39.108,39.108,0,0,0,4.63892-5.68347c1.94391-2.96685,2.247-6.19219,2.04675-9.59952a11.73662,11.73662,0,0,0-1.64953-4.58147,45.833,45.833,0,0,0-2.42913-4.12883c-1.03659-1.62217-2.1674-3.184-3.21218-4.8011a42.24528,42.24528,0,0,1-2.76464-5.17263A19.244,19.244,0,0,1,124.28374,89.321a26.54645,26.54645,0,0,1,1.575-6.30741,29.54484,29.54484,0,0,1,2.02405-4.3347,28.837,28.837,0,0,1,6.97165-8.24157,45.24284,45.24284,0,0,1,8.54491-5.49667c1.76463-.88809,3.62184-1.66708,5.49049-2.38706a37.762,37.762,0,0,0,4.15465-1.49707,12.68335,12.68335,0,0,1,3.76086-1.07214c2.228-.36781,4.30762-1.29746,6.63277-1.3847,1.7598-.066,3.48543-.97,5.34157-.85654.2906.01776.58288.00718.87436.01185a.77057.77057,0,0,1,.7893.50426c.13559.45361-.32832.493-.58659.66588-2.69649,1.80544-5.43164,3.553-8.03091,5.50218-2.88318,2.162-5.89689,4.164-8.6608,6.46724a81.82265,81.82265,0,0,0-8.30242,7.80825,21.09025,21.09025,0,0,0-3.39579,4.35151,10.24593,10.24593,0,0,0-1.5334,4.35614,14.39227,14.39227,0,0,0,1.24206,6.856c1.006,2.11659,2.07109,4.23041,3.28154,6.26313.92981,1.56144,1.6924,3.24165,2.49378,4.88472.62066,1.27255.66336,2.73813,1.53088,3.89136a2.35424,2.35424,0,0,1,.28058,1.44987c.02025,1.499.0057,2.9991.05661,4.497.10147,2.98578-1.215,5.471-2.68222,7.92707a21.79811,21.79811,0,0,1-6.523,6.66822,22.5553,22.5553,0,0,1-7.02083,3.46539c-.809.21353-1.46405.93146-2.42779.72136A1.13577,1.13577,0,0,1,129.3204,133.53015Z" transform="translate(-46.89197 -22.06727)" fill="#fec109"/><path d="M102.13189,147.70145c-4.07715-.05193-8.17375.18238-12.21963-.40068-3.01524-.43453-6.09677-.202-9.0518-.80814-2.50416-.51363-5.05853-.68581-7.55141-1.36951-1.73247-.47513-3.518-.91516-5.2017-1.48855a12.80278,12.80278,0,0,1-6.034-3.901c-.82993-1.0293-.74959-4.30769.13061-5.35211a14.51261,14.51261,0,0,1,4.69334-3.42441,40.05126,40.05126,0,0,1,7.68388-2.528,26.96462,26.96462,0,0,1,5.72162-1.036c4.98075-.27,9.88574-1.48631,14.90562-1.161.08289.00538.16793-.01124.24959-.00012.54848.07467,1.49159-.25236,1.545.33748.06936.76535-.94558.4769-1.45286.72353-1.15758.56281-2.43477.75306-3.60749,1.226a54.99243,54.99243,0,0,0-5.83888,2.58082,7.93615,7.93615,0,0,0-2.67953,2.3143c-.64826.897.353,2.1637,1.69093,2.572,4.11158,1.25455,8.382.9987,12.578,1.39012a147.8071,147.8071,0,0,0,22.58218.15694c6.14363-.369,12.33195-.10033,18.42352-.95833,3.47478-.48944,7.006-.19275,10.41368-.94362,2.62288-.578,5.32106-.33782,7.89918-.985a22.68038,22.68038,0,0,1,4.40625-.67413c.3648-.01843.79252-.10132.98111.3371.21189.49243-.26573.63321-.52412.86-2.295,2.01421-4.90828,3.63033-7.219,5.60652-3.05121,2.60952-6.79323,2.61347-10.40389,3.28034-5.05594.93379-10.1815,1.32526-15.24921,2.09277-4.30546.6521-8.64109.339-12.91828.96306C111.45,147.788,106.78808,147.63254,102.13189,147.70145Z" transform="translate(-46.89197 -22.06727)" fill="#5b0b9f"/><path d="M116.46384,158.76636a107.98148,107.98148,0,0,0,16.28819-1.41773,60.99519,60.99519,0,0,0,11.151-2.57946,3.74648,3.74648,0,0,1,3.703.68051c2.851,1.98643,5.832,3.786,8.75144,5.67511.2993.19369.78268.35389.71422.78079-.06766.42186-.58753.38942-.917.54071a63.8406,63.8406,0,0,1-11.21161,3.64015,108.77716,108.77716,0,0,1-12.71541,2.42207,130.72186,130.72186,0,0,1-21.66192,1.19957A107.77079,107.77079,0,0,1,93.698,168.02893a50.15255,50.15255,0,0,1-12.5521-3.87112,13.13213,13.13213,0,0,1-3.29666-2.19966c-1.90294-1.81733-1.98381-4.12446-.15069-6.32615a18.226,18.226,0,0,1,7.39783-5.06887,17.48089,17.48089,0,0,1,4.81635-1.20079c.27418-.02878.58752-.23067.76607.14083a.71639.71639,0,0,1-.0364.71895c-.68159,1.02982-1.52429,1.97658-.81711,3.38687.82735,1.64994,2.37011,2.3015,3.92043,2.82779C100.10758,158.59644,106.72679,158.719,116.46384,158.76636Z" transform="translate(-46.89197 -22.06727)" fill="#5b0b9f"/><path d="M114.648,190.25653a107.3894,107.3894,0,0,1-14.17778-.8316,39.05879,39.05879,0,0,1-11.06255-2.8207c-2.18037-.97734-4.27639-2.11726-5.44393-4.48576-.9183-1.86293-.34544-3.4711.53328-4.9603a12.68561,12.68561,0,0,1,6.48019-5.18889,17.05242,17.05242,0,0,1,4.71181-1.071c1.00619-.1087,1.37987.31514,1.08987,1.19127-.6091,1.8402.10015,3.16,1.89909,3.92226a26.86335,26.86335,0,0,0,8.64564,1.71074,78.65243,78.65243,0,0,0,14.7052-.48206c2.93762-.33592,5.86476-.72486,8.75445-1.2817a37.10453,37.10453,0,0,0,9.18513-2.6c1.73571-.83366,2.92441.1677,4.19075,1.00113q4.30383,2.83253,8.58132,5.70494a9.28,9.28,0,0,1,.93754.817c.40714.36133.40723.67389-.07916.98136a37.42377,37.42377,0,0,1-6.14473,2.94052,53.78045,53.78045,0,0,1-8.18373,2.53148c-2.62636.59339-5.27261,1.12234-7.94028,1.56225A152.80926,152.80926,0,0,1,114.648,190.25653Z" transform="translate(-46.89197 -22.06727)" fill="#5b0b9f"/><path d="M73.10371,217.41537a.95256.95256,0,0,1,.9701-.05313c1.12352.91214,2.60621.28717,3.67747.80277,2.08024,1.0012,4.4283.46266,6.47748,1.4659a11.18879,11.18879,0,0,0,2.32566.36827c3.41828.7883,6.94338.86,10.37331,1.64923,1.96064.45111,4.082.15648,6.08352.48616,5.68163.93585,11.4223.669,17.12535,1.061,6.1696.42412,12.29048-.06006,18.43031-.3132a3.99145,3.99145,0,0,1,.49869-.02051c3.55443.30391,7.0003-.70924,10.51115-.86429a65.98572,65.98572,0,0,0,9.06568-1.35579,29.94134,29.94134,0,0,0,6.24891-1.33767,35.47978,35.47978,0,0,1,4.76967-1.18427c2.0623-.52,4.06252-1.21733,6.095-1.78428,1.417-.39527,2.74148-1.03621,4.1826-1.37093a29.76965,29.76965,0,0,0,3.42212-1.30205,34.825,34.825,0,0,0,3.44082-1.5834q2.43422-1.21587,4.82831-2.51168c1.742-.945,3.37346-2.02485,5.01169-3.12039a42.84145,42.84145,0,0,0,5.69505-4.49c.2372-.22476.44022-.56583.83387-.389.38923.17488.22241.58171.288.88877.40138,1.87983-.83594,3.2948-1.54746,4.77562-2.13682,4.44707-5.81126,7.45658-9.93487,10.003a64.59562,64.59562,0,0,1-12.81549,5.83893,102.13745,102.13745,0,0,1-13.08841,3.47992c-3.11929.64314-6.31117,1.04361-9.46828,1.53627-3.96464.61867-7.96254.59737-11.91907,1.11742-7.3751.96937-14.77449.60232-22.13613.0617a76.06154,76.06154,0,0,1-7.99676-.69146c-2.44982-.44428-4.95861-.51576-7.34515-1.0512-1.78555-.4006-3.716-.25526-5.31863-.95924-1.96924-.865-4.07392-.738-6.07607-1.36882-1.72974-.545-3.62248-.98524-5.46314-1.369a19.17942,19.17942,0,0,1-5.12185-1.58986,21.40881,21.40881,0,0,0-3.15333-.94574c-1.33416-.45628-2.71589-.9188-4.045-1.40194C76.32232,219.27219,74.44182,218.90115,73.10371,217.41537Z" transform="translate(-46.89197 -22.06727)" fill="#5b0b9f"/><path d="M195.59779,142.20139c.02976,8.04431-3.43756,14.34443-9.66075,19.257a41.75078,41.75078,0,0,1-10.90463,6.03365c-2.71811,1.057-5.5403,1.68534-8.30614,2.53659a3.83939,3.83939,0,0,1-.98567.14584c-.40738.01437-.94174.09349-1.10115-.36057-.1707-.48623.41927-.51573.68918-.72622A80.0781,80.0781,0,0,0,175.99655,159.033a40.2807,40.2807,0,0,0,5.44109-7.83744c1.97087-3.70634,3.11273-7.631,2.47036-11.86305a9.52761,9.52761,0,0,0-4.21083-6.22771,14.779,14.779,0,0,0-8.96817-2.84323c-.33305.00006-.667.00289-.99887-.02011-.30534-.02115-.59686-.12149-.63423-.47723-.03116-.29662.23045-.40164.44461-.532a20.538,20.538,0,0,1,14.1763-3.08025c5.65657.88556,9.21161,4.24616,11.04172,9.64817A19.84193,19.84193,0,0,1,195.59779,142.20139Z" transform="translate(-46.89197 -22.06727)" fill="#5b0b9f"/></svg>